<?xml version="1.0" standalone="no"?>
<!DOCTYPE svg PUBLIC "-//W3C//DTD SVG 20010904//EN"
 "http://www.w3.org/TR/2001/REC-SVG-20010904/DTD/svg10.dtd">
<svg version="1.0" xmlns="http://www.w3.org/2000/svg"
 width="526.000000pt" height="526.000000pt" viewBox="0 0 526.000000 526.000000"
 preserveAspectRatio="xMidYMid meet">
<metadata>
Created by potrace 1.11, written by Peter Selinger 2001-2013
</metadata>
<g transform="translate(0.000000,526.000000) scale(0.100000,-0.100000)"
fill="#000000" stroke="none">
<path d="M1590 5245 c-193 -41 -339 -129 -455 -275 -136 -171 -193 -404 -151
-622 18 -91 33 -129 141 -353 140 -290 215 -445 252 -525 20 -41 91 -189 159
-327 123 -251 124 -253 206 -336 145 -144 291 -214 593 -280 61 -14 126 -27
147 -31 33 -6 39 -12 73 -84 21 -42 44 -92 52 -110 13 -32 13 -33 -6 -27 -21
6 -42 11 -145 30 -16 3 -55 12 -87 19 l-58 14 -15 -32 c-26 -55 -65 -189 -76
-261 -14 -85 -10 -212 7 -280 27 -103 21 -90 194 -451 21 -45 39 -85 39 -89 0
-8 -24 -59 -122 -265 -40 -85 -103 -217 -138 -293 -36 -76 -84 -163 -108 -193
-130 -166 -362 -217 -560 -124 -60 29 -162 132 -191 195 -74 157 -68 283 24
470 24 50 59 124 78 165 19 41 60 129 91 194 32 66 75 158 98 205 22 47 60
127 83 176 24 50 69 144 100 210 31 66 66 140 78 164 42 90 184 197 288 218
39 8 29 15 -56 42 -38 12 -121 47 -184 77 l-113 55 -26 -23 c-90 -82 -150
-164 -209 -288 -105 -218 -173 -362 -173 -365 0 -1 -38 -81 -84 -176 -46 -96
-100 -210 -121 -254 -20 -44 -57 -120 -80 -170 -87 -183 -107 -230 -126 -301
-21 -77 -28 -202 -17 -294 27 -212 155 -414 338 -534 135 -88 260 -120 435
-113 66 3 127 7 135 9 119 33 165 53 250 106 68 43 138 109 196 184 41 52 73
116 239 466 l49 104 37 -79 c120 -254 190 -395 223 -446 97 -152 282 -282 457
-321 134 -30 282 -26 394 10 28 9 55 17 60 18 58 13 194 107 268 186 200 211
263 532 159 796 -11 27 -59 130 -107 229 -48 99 -107 221 -130 270 -23 50 -77
162 -120 250 -42 88 -106 221 -142 295 -106 223 -124 255 -178 321 -93 116
-203 191 -370 253 -77 29 -242 75 -325 90 -85 16 -122 24 -127 30 -3 3 -27 51
-54 106 -40 84 -45 100 -30 100 9 0 79 -14 156 -30 76 -17 142 -27 147 -22 16
16 77 208 88 278 15 89 13 208 -4 293 -12 57 -44 135 -109 271 -38 80 -84 176
-102 213 l-32 68 43 87 c23 48 84 175 134 282 148 316 161 339 220 400 54 55
146 108 215 125 237 58 487 -92 550 -331 20 -74 17 -183 -5 -249 -17 -49 -89
-204 -244 -529 -42 -87 -76 -160 -76 -161 0 -2 -38 -83 -85 -180 -47 -98 -85
-179 -85 -181 0 -14 -115 -231 -137 -260 -38 -48 -129 -107 -208 -135 -36 -13
-65 -26 -65 -29 0 -3 33 -16 73 -28 39 -13 123 -48 185 -78 62 -30 118 -51
125 -47 7 4 36 30 66 57 57 54 121 146 163 236 15 30 63 131 107 224 45 92 81
169 81 171 0 2 32 70 71 151 150 315 200 420 277 586 75 160 97 354 58 513
-69 275 -279 490 -548 560 -79 20 -112 24 -218 21 -105 -3 -138 -8 -205 -30
-154 -53 -264 -127 -360 -243 -54 -65 -130 -209 -245 -463 -24 -52 -47 -99
-51 -103 -6 -8 -35 47 -179 348 -67 139 -121 215 -210 298 -79 74 -211 145
-320 173 -80 20 -256 25 -330 9z m230 -299 c44 -7 113 -36 161 -67 88 -56 124
-107 233 -332 167 -342 236 -488 236 -501 0 -7 -12 -37 -26 -67 -98 -201 -165
-347 -183 -394 -49 -134 -51 -328 -6 -480 14 -49 41 -124 59 -166 l33 -76 -31
7 c-171 43 -271 89 -340 157 -49 48 -68 85 -261 488 -240 502 -295 617 -329
685 -88 174 -108 276 -81 394 26 113 100 222 191 284 93 63 217 88 344 68z
m910 -1493 c20 -87 14 -153 -24 -266 -19 -58 -46 -127 -58 -152 l-24 -46 -42
99 c-93 220 -95 303 -12 486 l54 119 48 -96 c26 -53 52 -117 58 -144z m390
-1114 c62 -22 130 -64 177 -110 48 -47 99 -144 378 -734 23 -49 89 -184 145
-300 130 -268 151 -323 155 -409 15 -360 -359 -592 -671 -415 -62 35 -139 112
-170 171 -24 43 -166 338 -274 564 l-57 121 20 44 c12 24 54 113 94 197 65
137 106 237 120 297 2 11 7 67 10 125 6 129 -16 240 -80 400 l-43 107 81 -23
c44 -12 96 -28 115 -35z m-447 -181 c64 -152 82 -256 57 -349 -14 -53 -90
-219 -100 -219 -4 0 -14 17 -23 38 -9 20 -30 69 -48 107 -39 85 -47 188 -23
280 21 78 85 236 94 230 4 -3 23 -42 43 -87z"/>
</g>
</svg>
